<svg width="81" height="81" viewBox="0 0 81 81" fill="none" xmlns="http://www.w3.org/2000/svg">
<rect x="0.612549" y="0.528809" width="80" height="80" rx="8" fill="#B56DD8" fill-opacity="0.2"/>
<path opacity="0.3" d="M31.0789 18.0288H17.4851C15.9836 18.0288 14.7664 19.246 14.7664 20.7476V53.3726C14.7664 54.8741 15.9836 56.0913 17.4851 56.0913H31.0789C32.5804 56.0913 33.7976 54.8741 33.7976 53.3726V20.7476C33.7976 19.246 32.5804 18.0288 31.0789 18.0288Z" fill="#B56DD8"/>
<path fill-rule="evenodd" clip-rule="evenodd" d="M54.5245 45.3626C60.5158 47.5488 64.2004 47.3795 66.4227 47.9351C68.0118 48.3323 69.4267 49.1655 70.6675 50.4346C71.3764 51.1597 71.8685 52.0685 72.088 53.0585C72.7383 55.9903 70.8887 58.8942 67.9569 59.5444C64.449 60.3224 60.2875 60.8576 55.4722 61.1499C47.3672 61.642 33.4233 61.6548 13.6405 61.1882C12.7548 61.1673 12.0476 60.4433 12.0476 59.5573H12.0477C12.0477 51.7752 12.0477 46.1546 12.0477 42.6953C23.6019 41.5793 31.345 38.4388 35.277 33.2737C35.3333 33.1997 35.3959 33.1307 35.464 33.0673C36.1237 32.4538 37.1559 32.4912 37.7694 33.1509C38.8988 34.3652 39.9623 35.4706 40.96 36.4672C40.8942 36.5548 40.8329 36.6473 40.7767 36.7446L36.6986 43.8081C35.9478 45.1085 36.3934 46.7713 37.6937 47.522C38.9941 48.2728 40.6569 47.8272 41.4076 46.5269L45.0358 40.2426C46.3869 41.3715 47.5497 42.1891 48.5243 42.6953C48.8545 42.8668 49.1796 43.0319 49.4997 43.1907L47.5736 46.5269C46.8228 47.8272 47.2684 49.49 48.5687 50.2408C49.8691 50.9915 51.5319 50.546 52.2826 49.2456L54.5245 45.3626Z" fill="#B56DD8"/>
</svg>
