<svg width="24" height="24" viewBox="0 0 24 24" fill="none" xmlns="http://www.w3.org/2000/svg">
<path d="M8.43297 7.17429L9.40782 7.85689C9.49617 7.91875 9.56214 8.00752 9.5959 8.10994C9.68235 8.37221 9.53982 8.65489 9.27756 8.74134L5.8908 9.85769C5.84469 9.87289 5.79662 9.88129 5.74809 9.88263C5.47205 9.89027 5.24209 9.67268 5.23446 9.39665L5.1361 5.83998C5.13313 5.73269 5.16477 5.62729 5.22633 5.53937C5.38472 5.31317 5.6965 5.25819 5.9227 5.41658L6.7291 5.98123C8.16546 4.72182 10.024 4 12 4C16.4183 4 20 7.58172 20 12C20 16.4183 16.4183 20 12 20C7.58172 20 4 16.4183 4 12H6C6 15.3137 8.68629 18 12 18C15.3137 18 18 15.3137 18 12C18 8.68629 15.3137 6 12 6C10.6885 6 9.44767 6.42282 8.43297 7.17429Z" fill="#6F8FA6"/>
</svg>
