<svg width="24" height="24" viewBox="0 0 24 24" fill="none" xmlns="http://www.w3.org/2000/svg">
<g clip-path="url(#clip0)">
<path opacity="0.3" fill-rule="evenodd" clip-rule="evenodd" d="M7 6V6.5C7 7.32843 7.67157 8 8.5 8H16.5C17.3284 8 18 7.32843 18 6.5V6H19C20.1046 6 21 6.89543 21 8V18C21 19.1046 20.1046 20 19 20H6C4.89543 20 4 19.1046 4 18V8C4 6.89543 4.89543 6 6 6H7Z" fill="#6F8FA6"/>
<path fill-rule="evenodd" clip-rule="evenodd" d="M16.5 5C16.7761 5 17 5.22386 17 5.5V6.5C17 6.77614 16.7761 7 16.5 7H8.5C8.22386 7 8 6.77614 8 6.5V5.5C8 5.22386 8.22386 5 8.5 5C10.4915 5 14.2309 5 16.5 5Z" fill="#6F8FA6"/>
<path opacity="0.3" fill-rule="evenodd" clip-rule="evenodd" d="M19 9.75C19.2761 9.75 19.5 9.97386 19.5 10.25V11.25C19.5 11.5261 19.2761 11.75 19 11.75H6C5.72386 11.75 5.5 11.5261 5.5 11.25V10.25C5.5 9.97386 5.72386 9.75 6 9.75C7.99146 9.75 16.7309 9.75 19 9.75Z" fill="#6F8FA6"/>
<path d="M9.0625 4.9375L9.0625 5.9375C9.0625 6.48978 9.51022 6.9375 10.0625 6.9375C10.6148 6.9375 11.0625 6.48978 11.0625 5.9375L11.0625 4.9375C11.0625 4.38522 10.6148 3.9375 10.0625 3.9375C9.51022 3.9375 9.0625 4.38522 9.0625 4.9375Z" fill="#6F8FA6"/>
<path d="M13.875 4.9375L13.875 5.9375C13.875 6.48978 14.3227 6.9375 14.875 6.9375C15.4273 6.9375 15.875 6.48978 15.875 5.9375L15.875 4.9375C15.875 4.38522 15.4273 3.9375 14.875 3.9375C14.3227 3.9375 13.875 4.38522 13.875 4.9375Z" fill="#6F8FA6"/>
</g>
<defs>
<clipPath id="clip0">
<rect width="24" height="24" fill="white"/>
</clipPath>
</defs>
</svg>
