<svg width="24" height="24" viewBox="0 0 24 24" fill="none" xmlns="http://www.w3.org/2000/svg">
<rect width="24" height="24" rx="4" fill="#6F8FA6" fill-opacity="0.2"/>
<path opacity="0.3" fill-rule="evenodd" clip-rule="evenodd" d="M5.46565 8.52548L11.5764 4.79114C11.8364 4.63221 12.1636 4.63221 12.4237 4.79114L18.5344 8.52548C19.0174 8.82064 19.312 9.3459 19.312 9.91196V17.1251C19.312 18.0225 18.5845 18.75 17.6871 18.75L6.31293 18.75C5.41553 18.75 4.68805 18.0225 4.68805 17.1251C4.68805 17.1251 4.68805 17.1251 4.68805 17.1251L4.68806 9.91195C4.68806 9.3459 4.98265 8.82064 5.46565 8.52548Z" fill="#6F8FA6"/>
<path fill-rule="evenodd" clip-rule="evenodd" d="M13.4624 11.438C12.9393 11.438 12.3276 12.0309 12 12.4129C11.6723 12.0309 11.0606 11.438 10.5376 11.438C9.61173 11.438 9.0752 12.1601 9.0752 13.0792C9.0752 14.0974 10.0501 15.1752 12 16.3126C13.9498 15.1752 14.9248 14.119 14.9248 13.1441C14.9248 12.225 14.3882 11.438 13.4624 11.438Z" fill="#6F8FA6"/>
</svg>
