<svg width="81" height="81" viewBox="0 0 81 81" fill="none" xmlns="http://www.w3.org/2000/svg">
<rect x="0.612549" y="0.528809" width="80" height="80" rx="8" fill="#6A86EE" fill-opacity="0.2"/>
<path opacity="0.3" fill-rule="evenodd" clip-rule="evenodd" d="M20.823 67.0288H67.6475C69.9294 67.0288 71.7791 65.179 71.7791 62.8972V32.599C71.7791 30.3172 69.9294 28.4674 67.6475 28.4674H38.7265L31.6734 21.4144C30.8986 20.6395 29.8477 20.2043 28.752 20.2043H20.823C18.5412 20.2043 16.6914 22.054 16.6914 24.3358V62.8972C16.6914 65.179 18.5412 67.0288 20.823 67.0288Z" fill="#0E3FF2"/>
<path opacity="0.3" fill-rule="evenodd" clip-rule="evenodd" d="M15.3142 61.52H62.1388C64.4206 61.52 66.2703 59.6703 66.2703 57.3884V27.0902C66.2703 24.8084 64.4206 22.9586 62.1388 22.9586H33.2177L26.1647 15.9056C25.3898 15.1308 24.339 14.6955 23.2432 14.6955H15.3142C13.0324 14.6955 11.1826 16.5452 11.1826 18.827V57.3884C11.1826 59.6703 13.0324 61.52 15.3142 61.52Z" fill="#0E3FF2"/>
</svg>
