<svg width="81" height="81" viewBox="0 0 81 81" fill="none" xmlns="http://www.w3.org/2000/svg">
<rect x="0.112549" y="0.528809" width="80" height="80" rx="8" fill="#FF5454" fill-opacity="0.2"/>
<path opacity="0.3" d="M65.2793 13.5288H15.946C12.5402 13.5288 9.7793 16.2897 9.7793 19.6955V62.8621C9.7793 66.2679 12.5402 69.0288 15.946 69.0288H65.2793C68.6851 69.0288 71.446 66.2679 71.446 62.8621V19.6955C71.446 16.2897 68.6851 13.5288 65.2793 13.5288Z" fill="#FF4242"/>
<path opacity="0.56" d="M34.2876 45.3372C33.8679 46.5963 32.6896 47.4455 31.3625 47.4455H19.0291C17.3263 47.4455 15.9458 46.065 15.9458 44.3622C15.9458 42.6593 17.3263 41.2788 19.0291 41.2788H29.1401L34.604 24.8871C35.5795 21.9607 39.7723 22.1217 40.5204 25.1143L46.2072 47.8615L48.6463 42.9833C49.1686 41.9387 50.2362 41.2788 51.4041 41.2788H62.1958C63.8987 41.2788 65.2791 42.6593 65.2791 44.3622C65.2791 46.065 63.8987 47.4455 62.1958 47.4455H53.3097L47.9953 58.0744C46.7151 60.6348 42.9405 60.2204 42.2462 57.4433L37.1059 36.8822L34.2876 45.3372Z" fill="#FF4242"/>
<path opacity="0.3" d="M62.1959 25.8622C63.8988 25.8622 65.2792 24.4817 65.2792 22.7788C65.2792 21.076 63.8988 19.6955 62.1959 19.6955C60.493 19.6955 59.1125 21.076 59.1125 22.7788C59.1125 24.4817 60.493 25.8622 62.1959 25.8622Z" fill="#FF4242"/>
</svg>
