<svg width="50" height="50" viewBox="0 0 50 50" fill="none" xmlns="http://www.w3.org/2000/svg">
<path d="M42 0H8C3.58172 0 0 3.58172 0 8V42C0 46.4183 3.58172 50 8 50H42C46.4183 50 50 46.4183 50 42V8C50 3.58172 46.4183 0 42 0Z" fill="#EFA765" fill-opacity="0.2"/>
<path opacity="0.3" fill-rule="evenodd" clip-rule="evenodd" d="M25.4494 36C19.6586 36 14.9642 31.3057 14.9642 25.5149C14.9642 19.7241 19.6586 15.0298 25.4494 15.0298C31.2401 15.0298 35.9345 19.7241 35.9345 25.5149C35.9345 31.3057 31.2401 36 25.4494 36ZM25.4494 31.806C28.9238 31.806 31.7404 28.9894 31.7404 25.5149C31.7404 22.0404 28.9238 19.2238 25.4494 19.2238C21.9749 19.2238 19.1583 22.0404 19.1583 25.5149C19.1583 28.9894 21.9749 31.806 25.4494 31.806ZM25.4494 29.709C23.133 29.709 21.2553 27.8312 21.2553 25.5149C21.2553 23.1986 23.133 21.3209 25.4494 21.3209C27.7657 21.3209 29.6434 23.1986 29.6434 25.5149C29.6434 27.8312 27.7657 29.709 25.4494 29.709Z" fill="#EFA765"/>
<path opacity="0.3" fill-rule="evenodd" clip-rule="evenodd" d="M40.7738 27.1279C41.2359 27.1279 41.6269 27.4693 41.6894 27.9271L42.545 34.2019C42.6632 35.0687 42.0563 35.8672 41.1895 35.9854C41.1186 35.9951 41.0471 36 40.9755 36C40.0602 36 39.3182 35.258 39.3182 34.3427C39.3182 34.2926 39.3205 34.2426 39.325 34.1927L39.8943 27.9312C39.9356 27.4762 40.317 27.1279 40.7738 27.1279Z" fill="#EFA765"/>
<path fill-rule="evenodd" clip-rule="evenodd" d="M39.1607 13.4166V24.7083H44V18.2559C44 15.5832 41.8334 13.4166 39.1607 13.4166Z" fill="#EFA765"/>
<path fill-rule="evenodd" clip-rule="evenodd" d="M6.43798 13.4166L6.9585 18.7862C6.99003 19.1115 7.2634 19.3596 7.59019 19.3596C7.91698 19.3596 8.19035 19.1115 8.22188 18.7862L8.7424 13.4166H9.89461L10.4151 18.7862C10.4467 19.1115 10.72 19.3596 11.0468 19.3596C11.3736 19.3596 11.647 19.1115 11.6785 18.7862L12.199 13.4166H13.3512V18.8927C13.3512 21.1199 11.5457 22.9254 9.3185 22.9254C7.09128 22.9254 5.28577 21.1199 5.28577 18.8927L5.28577 13.4166H6.43798Z" fill="#EFA765"/>
<path opacity="0.3" fill-rule="evenodd" clip-rule="evenodd" d="M9.31828 25.3026C9.96442 25.3026 10.4977 25.808 10.5325 26.4532L10.9537 34.2742C11.0023 35.1774 10.3095 35.949 9.40636 35.9976C9.37703 35.9992 9.34766 36 9.31828 36C8.41378 36 7.68054 35.2667 7.68054 34.3622C7.68054 34.3329 7.68133 34.3035 7.68291 34.2742L8.10411 26.4532C8.13886 25.808 8.67215 25.3026 9.31828 25.3026Z" fill="#EFA765"/>
</svg>
