<svg width="81" height="81" viewBox="0 0 81 81" fill="none" xmlns="http://www.w3.org/2000/svg">
<rect x="0.612549" y="0.528809" width="80" height="80" rx="8" fill="#D86DB3" fill-opacity="0.2"/>
<path opacity="0.3" d="M23.7597 36.4504C23.7597 37.9827 22.5175 39.2249 20.9852 39.2249C19.4529 39.2249 18.2107 37.9827 18.2107 36.4504V25.3523C18.2107 20.7554 21.9373 17.0288 26.5342 17.0288C31.1312 17.0288 34.8578 20.7554 34.8578 25.3523C34.8578 26.8847 33.6156 28.1268 32.0832 28.1268C30.5509 28.1268 29.3087 26.8847 29.3087 25.3523C29.3087 23.82 28.0665 22.5778 26.5342 22.5778C25.0019 22.5778 23.7597 23.82 23.7597 25.3523V36.4504Z" fill="#D86DB3"/>
<path opacity="0.3" d="M23.7597 64.1955H18.2107C18.2107 56.5339 24.4216 53.0974 32.0832 53.0974H48.7303C56.3919 53.0974 62.6028 56.5339 62.6028 64.1955H57.0538C57.0538 59.5985 53.3273 58.6465 48.7303 58.6465H32.0832C27.4863 58.6465 23.7597 59.5985 23.7597 64.1955Z" fill="#D86DB3"/>
<path fill-rule="evenodd" clip-rule="evenodd" d="M12.6616 33.6758H70.9263L69.523 46.3058C68.7424 53.3314 62.804 58.6464 55.7353 58.6464H27.8527C20.7839 58.6464 14.8456 53.3314 14.065 46.3058L12.6616 33.6758ZM60.5219 40.6121C60.5219 44.5813 58.9806 47.6639 55.8052 50.0454C54.8859 50.735 54.6995 52.0393 55.3891 52.9587C56.0786 53.8781 57.3829 54.0644 58.3023 53.3749C62.5256 50.2074 64.6837 45.8913 64.6837 40.6121C64.6837 39.4629 63.752 38.5312 62.6028 38.5312C61.4536 38.5312 60.5219 39.4629 60.5219 40.6121Z" fill="#D86DB3"/>
</svg>
