<svg width="81" height="81" viewBox="0 0 81 81" fill="none" xmlns="http://www.w3.org/2000/svg">
<rect x="0.612549" y="0.528809" width="80" height="80" rx="8" fill="#54B725" fill-opacity="0.2"/>
<path fill-rule="evenodd" clip-rule="evenodd" d="M63.6126 52.1455V61.5122C63.6126 64.0987 61.5158 66.1955 58.9293 66.1955H21.4626C18.8761 66.1955 16.7793 64.0987 16.7793 61.5122V52.1455H26.7998L28.0741 55.9682C28.7115 57.8806 30.5012 59.1705 32.5171 59.1705H48.1154C49.8893 59.1705 51.511 58.1683 52.3043 56.5816L54.5223 52.1455H63.6126Z" fill="#54B725"/>
<path opacity="0.3" fill-rule="evenodd" clip-rule="evenodd" d="M18.0964 47.4622L25.9739 33.4578C26.8034 31.9831 28.3638 31.0705 30.0558 31.0705H50.336C52.028 31.0705 53.5884 31.9831 54.4179 33.4578L62.2954 47.4622H54.5223C52.7484 47.4622 51.1267 48.4644 50.3334 50.051L48.1153 54.4872H32.517L31.2428 50.6645C30.6053 48.7521 28.8156 47.4622 26.7998 47.4622H18.0964Z" fill="#54B725"/>
<path d="M46.9573 18.9657H42.3759V14.2644C42.3759 13.6178 41.8517 13.0936 41.2051 13.0936H38.8089C38.1622 13.0936 37.638 13.6178 37.638 14.2644V18.9657L33.0566 18.9657C32.41 18.9657 31.8858 19.4899 31.8858 20.1366C31.8858 20.4136 31.984 20.6817 32.163 20.8931L39.1134 29.1022C39.5312 29.5957 40.27 29.6571 40.7635 29.2392C40.8129 29.1974 40.8587 29.1516 40.9005 29.1022L47.8509 20.8931C48.2687 20.3996 48.2074 19.6608 47.7139 19.243C47.5024 19.064 47.2344 18.9657 46.9573 18.9657Z" fill="#54B725"/>
</svg>
