<svg width="81" height="81" viewBox="0 0 81 81" fill="none" xmlns="http://www.w3.org/2000/svg">
<rect x="0.612549" y="0.528809" width="80" height="80" rx="8" fill="#6DD8A4" fill-opacity="0.2"/>
<path opacity="0.3" d="M14.5625 16.9788L14.5625 63.2455C14.5625 66.4395 17.1518 69.0288 20.3458 69.0288L60.8292 69.0288C64.0232 69.0288 66.6125 66.4395 66.6125 63.2455L66.6125 16.9788C66.6125 13.7848 64.0232 11.1955 60.8292 11.1955L20.3458 11.1955C17.1518 11.1955 14.5625 13.7848 14.5625 16.9788Z" fill="#6DD8A4"/>
<path opacity="0.3" d="M39.72 20.4462L39.72 59.7752C39.72 62.4903 39.8063 64.6913 39.9127 64.6913L41.2622 64.6913C41.3687 64.6913 41.455 62.4903 41.455 59.7752L41.455 20.4462C41.455 17.7311 41.3687 15.5301 41.2622 15.5301L39.9127 15.5301C39.8063 15.5301 39.72 17.7311 39.72 20.4462Z" fill="#6DD8A4"/>
<path d="M33.9367 24.208C33.9367 21.6527 31.8653 19.5813 29.31 19.5813C26.7548 19.5813 24.6833 21.6527 24.6833 24.208C24.6833 26.7632 26.7548 28.8347 29.31 28.8347C31.8653 28.8347 33.9367 26.7632 33.9367 24.208Z" fill="#6DD8A4"/>
<path opacity="0.3" d="M33.9367 42.4254C33.9367 39.8702 31.8653 37.7988 29.31 37.7988C26.7548 37.7988 24.6833 39.8702 24.6833 42.4254C24.6833 44.9807 26.7548 47.0521 29.31 47.0521C31.8653 47.0521 33.9367 44.9807 33.9367 42.4254Z" fill="#6DD8A4"/>
<path opacity="0.3" d="M33.9367 57.1729C33.9367 54.6177 31.8653 52.5463 29.31 52.5463C26.7548 52.5463 24.6833 54.6177 24.6833 57.1729C24.6833 59.7282 26.7548 61.7996 29.31 61.7996C31.8653 61.7996 33.9367 59.7282 33.9367 57.1729Z" fill="#6DD8A4"/>
<path opacity="0.3" d="M56.9255 24.208C56.9255 21.6527 54.854 19.5813 52.2988 19.5813C49.7436 19.5813 47.6721 21.6527 47.6721 24.208C47.6721 26.7632 49.7436 28.8347 52.2988 28.8347C54.854 28.8347 56.9255 26.7632 56.9255 24.208Z" fill="#6DD8A4"/>
<path opacity="0.3" d="M56.9255 42.4254C56.9255 39.8702 54.854 37.7988 52.2988 37.7988C49.7436 37.7988 47.6721 39.8702 47.6721 42.4254C47.6721 44.9807 49.7436 47.0521 52.2988 47.0521C54.854 47.0521 56.9255 44.9807 56.9255 42.4254Z" fill="#6DD8A4"/>
<path opacity="0.3" d="M56.9255 57.1729C56.9255 54.6177 54.854 52.5463 52.2988 52.5463C49.7436 52.5463 47.6721 54.6177 47.6721 57.1729C47.6721 59.7282 49.7436 61.7996 52.2988 61.7996C54.854 61.7996 56.9255 59.7282 56.9255 57.1729Z" fill="#6DD8A4"/>
</svg>
