<svg width="50" height="50" viewBox="0 0 50 50" fill="none" xmlns="http://www.w3.org/2000/svg">
<path d="M42 0H8C3.58172 0 0 3.58172 0 8V42C0 46.4183 3.58172 50 8 50H42C46.4183 50 50 46.4183 50 42V8C50 3.58172 46.4183 0 42 0Z" fill="#6DBED8" fill-opacity="0.2"/>
<path opacity="0.3" d="M11.4479 39H8.13538C8.13538 34.4264 11.843 32.375 16.4166 32.375H32.9791C37.5527 32.375 41.2604 34.4264 41.2604 39H37.9479C37.9479 36.2558 35.7233 35.6875 32.9791 35.6875H16.4166C13.6725 35.6875 11.4479 36.2558 11.4479 39Z" fill="#6DBED8"/>
<path d="M41.2605 25.75H8.1355C7.22078 25.75 6.47925 26.4915 6.47925 27.4062V34.0312C6.47925 34.946 7.22078 35.6875 8.1355 35.6875H41.2605C42.1752 35.6875 42.9167 34.946 42.9167 34.0312V27.4062C42.9167 26.4915 42.1752 25.75 41.2605 25.75Z" fill="#6DBED8"/>
<path opacity="0.3" fill-rule="evenodd" clip-rule="evenodd" d="M26.3541 24.0938H23.0416V22.4375C23.0416 21.5228 22.3001 20.7812 21.3854 20.7812H14.7604C13.8457 20.7812 13.1041 21.5228 13.1041 22.4375V24.0938H11.4479C10.5332 24.0938 9.79163 23.3522 9.79163 22.4375V15.8125C9.79163 13.9831 11.2747 12.5 13.1041 12.5H36.2916C38.1211 12.5 39.6041 13.9831 39.6041 15.8125V22.4375C39.6041 23.3522 38.8626 24.0938 37.9479 24.0938H36.2916V22.4375C36.2916 21.5228 35.5501 20.7812 34.6354 20.7812H28.0104C27.0957 20.7812 26.3541 21.5228 26.3541 22.4375V24.0938Z" fill="#6DBED8"/>
</svg>
