<svg width="80" height="80" viewBox="0 0 80 80" fill="none" xmlns="http://www.w3.org/2000/svg">
<rect width="80" height="80" rx="8" fill="#FF604A" fill-opacity="0.2"/>
<path opacity="0.3" d="M40.0001 73.3334C58.4096 73.3334 73.3334 58.4095 73.3334 40C73.3334 21.5905 58.4096 6.66669 40.0001 6.66669C21.5906 6.66669 6.66675 21.5905 6.66675 40C6.66675 58.4095 21.5906 73.3334 40.0001 73.3334Z" fill="#FF604A"/>
<path d="M43.3334 26.6666C43.3334 24.8257 41.841 23.3333 40.0001 23.3333C38.1591 23.3333 36.6667 24.8257 36.6667 26.6666V46.6666C36.6667 48.5076 38.1591 50 40.0001 50C41.841 50 43.3334 48.5076 43.3334 46.6666V26.6666Z" fill="#FF604A"/>
<path d="M43.3334 56.6666C43.3334 54.8257 41.841 53.3333 40.0001 53.3333C38.1591 53.3333 36.6667 54.8257 36.6667 56.6666C36.6667 58.5076 38.1591 60 40.0001 60C41.841 60 43.3334 58.5076 43.3334 56.6666Z" fill="#FF604A"/>
</svg>
