<svg width="13" height="13" viewBox="0 0 13 13" fill="none" xmlns="http://www.w3.org/2000/svg">
<path d="M11.8543 7.74719C11.5277 7.17698 11.4407 6.50046 11.6124 5.86615C11.784 5.23184 12.2004 4.69157 12.77 4.36394L11.4928 2.1515C11.116 2.37228 10.6871 2.4884 10.2505 2.48788C9.92481 2.48681 9.60257 2.42161 9.30212 2.29601C9.00167 2.17041 8.7289 1.98685 8.49939 1.75583C8.26988 1.52481 8.08811 1.25085 7.96448 0.94958C7.84085 0.648314 7.77777 0.325646 7.77883 0L5.22352 0C5.22721 0.437766 5.11329 0.868491 4.89365 1.24719C4.21196 2.42856 2.69502 2.82994 1.50552 2.14581L0.228271 4.35825C0.608229 4.57357 0.923359 4.88701 1.14071 5.26581C1.46679 5.83504 1.55411 6.51025 1.38356 7.1437C1.21302 7.77715 0.798499 8.31725 0.230709 8.64581L1.50796 10.8583C1.87196 10.6462 2.29365 10.5251 2.74458 10.5251C3.4 10.5273 4.02792 10.7888 4.49106 11.2526C4.95421 11.7163 5.21492 12.3446 5.21621 13H7.77152C7.77027 12.5667 7.88411 12.1407 8.1014 11.7658C8.43133 11.1987 8.97247 10.7855 9.60639 10.6164C10.2403 10.4474 10.9154 10.5364 11.4838 10.8639L12.7611 8.6515C12.3838 8.43602 12.0708 8.12386 11.8543 7.74719ZM6.49996 9.1325C5.80178 9.1325 5.13219 8.85515 4.6385 8.36146C4.14481 7.86777 3.86746 7.19818 3.86746 6.5C3.86746 5.80182 4.14481 5.13223 4.6385 4.63854C5.13219 4.14485 5.80178 3.8675 6.49996 3.8675C7.19814 3.8675 7.86773 4.14485 8.36142 4.63854C8.85511 5.13223 9.13246 5.80182 9.13246 6.5C9.13246 7.19818 8.85511 7.86777 8.36142 8.36146C7.86773 8.85515 7.19814 9.1325 6.49996 9.1325V9.1325Z" fill="#7F8297"/>
</svg>
