<svg width="17" height="17" viewBox="0 0 17 17" fill="none" xmlns="http://www.w3.org/2000/svg">
<path d="M13.4583 14.1667H3.54163C3.35377 14.1667 3.1736 14.2413 3.04077 14.3741C2.90793 14.507 2.8333 14.6871 2.8333 14.875C2.8333 15.0629 2.90793 15.243 3.04077 15.3759C3.1736 15.5087 3.35377 15.5833 3.54163 15.5833H13.4583C13.6462 15.5833 13.8263 15.5087 13.9592 15.3759C14.092 15.243 14.1666 15.0629 14.1666 14.875C14.1666 14.6871 14.092 14.507 13.9592 14.3741C13.8263 14.2413 13.6462 14.1667 13.4583 14.1667ZM3.54163 12.75H3.60538L6.55913 12.4808C6.8827 12.4486 7.18532 12.306 7.41622 12.0771L13.7912 5.70208C14.0387 5.44069 14.1724 5.09186 14.1631 4.73205C14.1538 4.37223 14.0022 4.03078 13.7416 3.7825L11.8008 1.84167C11.5475 1.60374 11.2156 1.46721 10.8682 1.45807C10.5208 1.44893 10.1821 1.5678 9.91663 1.79208L3.54163 8.16708C3.31268 8.39798 3.17012 8.7006 3.13788 9.02417L2.8333 11.9779C2.82376 12.0817 2.83722 12.1862 2.87273 12.2842C2.90823 12.3821 2.96491 12.4711 3.03872 12.5446C3.1049 12.6102 3.1834 12.6622 3.2697 12.6974C3.356 12.7327 3.44841 12.7505 3.54163 12.75ZM10.8162 2.83333L12.75 4.76708L11.3333 6.14833L9.43497 4.25L10.8162 2.83333Z" fill="#7F8297"/>
</svg>
