<svg width="20" height="21" viewBox="0 0 20 21" fill="none" xmlns="http://www.w3.org/2000/svg">
<path d="M10 0.5C4.4774 0.5 0 4.9774 0 10.5C0 16.0226 4.4774 20.5 10 20.5C15.5226 20.5 20 16.0226 20 10.5C20 4.9774 15.5226 0.5 10 0.5ZM11.6976 14.5716C11.772 14.6424 11.8316 14.7273 11.8727 14.8213C11.9138 14.9154 11.9356 15.0168 11.9369 15.1195C11.9383 15.2221 11.919 15.324 11.8803 15.4191C11.8416 15.5142 11.7843 15.6006 11.7117 15.6732C11.6391 15.7458 11.5527 15.8032 11.4576 15.8419C11.3625 15.8805 11.2606 15.8998 11.1579 15.8985C11.0553 15.8972 10.9539 15.8753 10.8598 15.8342C10.7657 15.7931 10.6808 15.7336 10.6101 15.6591L5.99471 11.0437C5.85056 10.8995 5.76959 10.7039 5.76959 10.5C5.76959 10.2961 5.85056 10.1005 5.99471 9.95625L10.6101 5.34087C10.7555 5.2027 10.9492 5.12681 11.1498 5.12937C11.3504 5.13194 11.542 5.21277 11.6838 5.35461C11.8257 5.49646 11.9065 5.68811 11.9091 5.88869C11.9117 6.08928 11.8358 6.28293 11.6976 6.42837L7.62644 10.5L11.6976 14.5716Z" fill="#6F8FA6"/>
</svg>
