<svg width="64" height="64" viewBox="0 0 64 64" fill="none" xmlns="http://www.w3.org/2000/svg">
<path opacity="0.3" d="M38.1143 44.5523C37.0729 43.5109 37.0729 41.8224 38.1143 40.781C39.1557 39.7397 40.8441 39.7397 41.8855 40.781L52.5522 51.4477C53.5936 52.4891 53.5936 54.1776 52.5522 55.219C51.5108 56.2604 49.8224 56.2604 48.781 55.219L38.1143 44.5523Z" fill="white"/>
<path d="M29.3334 42.6666C36.6972 42.6666 42.6667 36.6971 42.6667 29.3333C42.6667 21.9695 36.6972 16 29.3334 16C21.9696 16 16.0001 21.9695 16.0001 29.3333C16.0001 36.6971 21.9696 42.6666 29.3334 42.6666ZM29.3334 48C19.0241 48 10.6667 39.6426 10.6667 29.3333C10.6667 19.024 19.0241 10.6666 29.3334 10.6666C39.6427 10.6666 48.0001 19.024 48.0001 29.3333C48.0001 39.6426 39.6427 48 29.3334 48Z" fill="white"/>
<path opacity="0.3" fill-rule="evenodd" clip-rule="evenodd" d="M28 28V25.3333C28 24.597 28.597 24 29.3333 24C30.0697 24 30.6667 24.597 30.6667 25.3333V28H33.3333C34.0697 28 34.6667 28.597 34.6667 29.3333C34.6667 30.0697 34.0697 30.6667 33.3333 30.6667H30.6667V33.3333C30.6667 34.0697 30.0697 34.6667 29.3333 34.6667C28.597 34.6667 28 34.0697 28 33.3333V30.6667H25.3333C24.597 30.6667 24 30.0697 24 29.3333C24 28.597 24.597 28 25.3333 28H28Z" fill="white"/>
</svg>
