<svg width="24" height="24" viewBox="0 0 24 24" fill="none" xmlns="http://www.w3.org/2000/svg">
<rect width="24" height="24" rx="4" fill="#6F8FA6" fill-opacity="0.2"/>
<path fill-rule="evenodd" clip-rule="evenodd" d="M19 15.036V17.8453C19 18.6211 18.3711 19.25 17.5953 19.25H6.35787C5.58208 19.25 4.95319 18.6211 4.95319 17.8453V15.036H7.95867L8.34085 16.1825C8.53205 16.7561 9.06883 17.143 9.67345 17.143H14.3519C14.8839 17.143 15.3703 16.8424 15.6083 16.3665L16.2735 15.036H19Z" fill="#6F8FA6"/>
<path opacity="0.3" fill-rule="evenodd" clip-rule="evenodd" d="M5.34821 13.6313L7.71091 9.4309C7.95971 8.9886 8.42772 8.71488 8.9352 8.71488H15.0179C15.5254 8.71488 15.9934 8.9886 16.2422 9.4309L18.6049 13.6313H16.2735C15.7414 13.6313 15.2551 13.9319 15.0171 14.4078L14.3518 15.7383H9.67341L9.29122 14.5918C9.10003 14.0182 8.56324 13.6313 7.95863 13.6313H5.34821Z" fill="#6F8FA6"/>
<path d="M14.0046 5.08427H12.6305V3.6742C12.6305 3.48025 12.4733 3.32302 12.2793 3.32302H11.5606C11.3667 3.32302 11.2094 3.48025 11.2094 3.6742V5.08427H9.83533C9.64138 5.08427 9.48415 5.24149 9.48415 5.43544C9.48415 5.51853 9.51362 5.59893 9.56731 5.66235L11.6519 8.12452C11.7773 8.27254 11.9989 8.29094 12.1469 8.16562C12.1617 8.15308 12.1754 8.13933 12.188 8.12452L14.2726 5.66235C14.3979 5.51433 14.3795 5.29275 14.2315 5.16743C14.1681 5.11373 14.0877 5.08427 14.0046 5.08427Z" fill="#6F8FA6"/>
</svg>
