<svg width="86" height="29" viewBox="0 0 86 29" fill="none" xmlns="http://www.w3.org/2000/svg">
<path d="M40.9841 28.6857H45.9637L40.1801 21.4844L45.7821 15.3306H40.8803L36.5232 20.306V9.83136H32.7366V28.6857H36.5232V25.4648L37.5087 24.3911L40.9841 28.6857Z" fill="#5099F7"/>
<path d="M55.9095 15.3306V16.6661C54.898 15.6186 53.5234 15.0163 51.9154 15.0163C48.2845 15.0163 45.5353 18.0278 45.5353 22.0081C45.5353 25.9885 48.2845 29 51.9154 29C53.5234 29 54.898 28.3977 55.9095 27.3502V28.6857H59.6961V15.3306H55.9095ZM52.6676 25.3077C50.8262 25.3077 49.4516 23.8936 49.4516 22.0081C49.4516 20.1227 50.8262 18.7086 52.6676 18.7086C54.5349 18.7086 55.9095 20.1227 55.9095 22.0081C55.9095 23.8936 54.5349 25.3077 52.6676 25.3077Z" fill="#5099F7"/>
<path d="M70.0648 15.1211C68.6383 15.1211 67.4194 15.7495 66.4857 16.8494V15.3306H62.6991V28.6857H66.4857V22.4533C66.4857 20.3846 67.7565 19.0491 70.0648 19.0491H70.6354V15.1211H70.0648Z" fill="#5099F7"/>
<path d="M85.5 22.0605C85.5 18.0016 82.5175 15.0163 78.5493 15.0163C74.5293 15.0163 71.4949 18.0016 71.4949 21.9296C71.4949 25.9623 74.659 29 78.8606 29C81.2985 29 83.4252 28.0049 84.8257 26.4075L82.2841 24.1816C81.6616 24.9672 80.4686 25.6743 78.9643 25.6743C77.3044 25.6743 76.0336 24.7577 75.5668 23.2651H85.4222C85.4741 22.9247 85.5 22.4271 85.5 22.0605ZM78.4975 18.3158C79.9239 18.3158 81.0651 19.2324 81.4801 20.725H75.5408C75.9299 19.2585 77.071 18.3158 78.4975 18.3158Z" fill="#5099F7"/>
<path d="M49.4292 2.76155C48.1998 2.76155 47.2605 3.33339 46.7908 4.32364C46.404 3.34734 45.5062 2.76155 44.3182 2.76155C43.2131 2.76155 42.3567 3.24971 41.8594 4.10049V2.92892H41.0582V10.042H41.8594V5.71837C41.8594 4.40733 42.7573 3.5426 44.0834 3.5426C45.3542 3.5426 46.1968 4.39338 46.1968 5.69047V10.042H46.998V5.71837C46.998 4.40733 47.8821 3.5426 49.2082 3.5426C50.4928 3.5426 51.3216 4.39338 51.3216 5.69047V10.042H52.1228V5.46731C52.1228 3.83549 51.0592 2.76155 49.4292 2.76155Z" fill="#5099F7"/>
<path d="M57.498 10.2094C59.6114 10.2094 61.2138 8.60544 61.2138 6.48546C61.2138 4.36548 59.6114 2.76155 57.498 2.76155C55.3707 2.76155 53.7683 4.36548 53.7683 6.48546C53.7683 8.60544 55.3707 10.2094 57.498 10.2094ZM57.498 9.42833C55.8403 9.42833 54.5971 8.15913 54.5971 6.48546C54.5971 4.81179 55.8403 3.5426 57.498 3.5426C59.1556 3.5426 60.385 4.81179 60.385 6.48546C60.385 8.15913 59.1556 9.42833 57.498 9.42833Z" fill="#5099F7"/>
<path d="M66.7787 2.76155C65.4388 2.76155 64.3199 3.47286 63.7397 4.57469V0H62.9385V10.042H63.7397V8.39623C64.3199 9.49806 65.4388 10.2094 66.7787 10.2094C68.8369 10.2094 70.3702 8.60544 70.3702 6.48546C70.3702 4.36548 68.8369 2.76155 66.7787 2.76155ZM66.6405 9.42833C64.9829 9.42833 63.7397 8.15913 63.7397 6.48546C63.7397 4.81179 64.9829 3.5426 66.6405 3.5426C68.2981 3.5426 69.5413 4.81179 69.5413 6.48546C69.5413 8.15913 68.2981 9.42833 66.6405 9.42833Z" fill="#5099F7"/>
<path opacity="0.5" d="M9.27614 28.6146C4.42921 28.6146 0.5 24.6474 0.5 19.7535C0.5 14.8596 4.42921 10.8924 9.27613 10.8924L10.7962 10.8924L10.7962 28.6146L9.27614 28.6146Z" fill="#5099F7"/>
<path fill-rule="evenodd" clip-rule="evenodd" d="M19.3507 0.810547C14.5038 0.810547 10.5746 4.77781 10.5746 9.67168V28.5694H28.1269V17.8368C27.3587 18.9325 26.4044 19.9947 25.3316 20.995C22.4788 23.6534 19.1559 25.1129 17.1036 26.0144C16.8716 26.1163 16.6559 26.211 16.4589 26.2996C16.2793 26.3792 16.077 26.2906 15.9982 26.1092C15.8488 25.7511 16.5283 25.4041 17.1588 25.082C17.7951 24.7569 18.3816 24.4574 18.0155 24.1977C18.0002 24.1878 17.989 24.1787 17.9766 24.1719C17.8748 24.1159 17.6899 24.2113 14.5152 25.2775C14.3263 25.3357 14.1346 25.2425 14.0663 25.0565C14.0027 24.8811 14.0904 24.6768 14.2595 24.6019L17.0387 23.3708C17.1655 23.3146 17.2248 23.1611 17.1692 23.033C17.0715 22.8082 17.0441 22.8157 15.1912 23.3267C14.6703 23.4704 14.005 23.6539 13.1533 23.8832C12.928 23.9448 12.7072 23.8136 12.6461 23.5862C12.5339 23.1644 12.7424 23.1042 14.8348 22.5004C15.3398 22.3546 15.9545 22.1772 16.7009 21.9554C16.7795 21.9333 16.8442 21.8792 16.8739 21.8024C17.0646 21.3629 16.6471 21.4031 14.698 21.5908C14.202 21.6385 13.6069 21.6958 12.8973 21.7572C12.6793 21.7775 12.4763 21.6002 12.4668 21.3754C12.4514 21.1659 12.6058 20.9703 12.8238 20.95C12.7042 20.9648 17.0675 20.5079 17.3971 20.4255C17.5544 20.3813 17.6711 20.2151 17.6485 20.0469C17.6154 19.7857 17.2148 19.6436 16.7951 19.4946C16.2276 19.2932 15.6249 19.0793 15.8477 18.5417C16.0642 18.0098 16.8421 18.2735 17.8416 18.6124C19.234 19.0845 21.0564 19.7024 22.3906 18.5188C27.2273 14.2209 28.0791 10.7967 28.1002 8.97636C27.749 4.40749 23.9659 0.810547 19.3507 0.810547Z" fill="#5099F7"/>
</svg>
