<svg width="90" height="31" viewBox="0 0 90 31" fill="none" xmlns="http://www.w3.org/2000/svg">
<path d="M42.8654 29.9686H48.138L42.0141 22.4452L47.9457 16.0161H42.7556L38.1421 21.2141V10.271H34.1328V29.9686H38.1421V26.6036L39.1857 25.482L42.8654 29.9686Z" fill="#6F8FA6"/>
<path d="M58.6689 16.0161V17.4114C57.5979 16.3171 56.1424 15.6878 54.4399 15.6878C50.5953 15.6878 47.6844 18.834 47.6844 22.9924C47.6844 27.1508 50.5953 30.2969 54.4399 30.2969C56.1424 30.2969 57.5979 29.6677 58.6689 28.5734V29.9686H62.6782V16.0161H58.6689ZM55.2362 26.4395C53.2865 26.4395 51.831 24.9622 51.831 22.9924C51.831 21.0226 53.2865 19.5453 55.2362 19.5453C57.2134 19.5453 58.6689 21.0226 58.6689 22.9924C58.6689 24.9622 57.2134 26.4395 55.2362 26.4395Z" fill="#6F8FA6"/>
<path d="M73.6568 15.7973C72.1465 15.7973 70.8558 16.4539 69.8672 17.6029V16.0161H65.8579V29.9686H69.8672V23.4575C69.8672 21.2962 71.2128 19.901 73.6568 19.901H74.261V15.7973H73.6568Z" fill="#6F8FA6"/>
<path d="M90 23.0471C90 18.8066 86.842 15.6878 82.6404 15.6878C78.384 15.6878 75.171 18.8066 75.171 22.9103C75.171 27.1234 78.5213 30.2969 82.97 30.2969C85.5513 30.2969 87.8031 29.2573 89.286 27.5885L86.5948 25.2631C85.9358 26.0838 84.6726 26.8225 83.0798 26.8225C81.3223 26.8225 79.9767 25.865 79.4824 24.3056H89.9176C89.9726 23.9499 90 23.4301 90 23.0471ZM82.5855 19.1349C84.0959 19.1349 85.3042 20.0925 85.7436 21.6519H79.455C79.8669 20.1198 81.0752 19.1349 82.5855 19.1349Z" fill="#6F8FA6"/>
<path d="M51.8074 2.88506C50.5057 2.88506 49.5111 3.48247 49.0138 4.51702C48.6043 3.49705 47.6536 2.88506 46.3958 2.88506C45.2257 2.88506 44.3189 3.39505 43.7923 4.28388V3.05991H42.944V10.4911H43.7923V5.97412C43.7923 4.60444 44.743 3.70104 46.1471 3.70104C47.4927 3.70104 48.3849 4.58987 48.3849 5.94498V10.4911H49.2332V5.97412C49.2332 4.60444 50.1693 3.70104 51.5734 3.70104C52.9336 3.70104 53.8112 4.58987 53.8112 5.94498V10.4911H54.6595V5.71184C54.6595 4.00703 53.5333 2.88506 51.8074 2.88506Z" fill="#6F8FA6"/>
<path d="M60.3508 10.666C62.5886 10.666 64.2852 8.99032 64.2852 6.77553C64.2852 4.56073 62.5886 2.88506 60.3508 2.88506C58.0984 2.88506 56.4018 4.56073 56.4018 6.77553C56.4018 8.99032 58.0984 10.666 60.3508 10.666ZM60.3508 9.85001C58.5957 9.85001 57.2793 8.52405 57.2793 6.77553C57.2793 5.027 58.5957 3.70104 60.3508 3.70104C62.1059 3.70104 63.4076 5.027 63.4076 6.77553C63.4076 8.52405 62.1059 9.85001 60.3508 9.85001Z" fill="#6F8FA6"/>
<path d="M70.1774 2.88506C68.7587 2.88506 67.574 3.62819 66.9597 4.7793V0H66.1114V10.4911H66.9597V8.77176C67.574 9.92287 68.7587 10.666 70.1774 10.666C72.3567 10.666 73.9802 8.99032 73.9802 6.77553C73.9802 4.56073 72.3567 2.88506 70.1774 2.88506ZM70.0312 9.85001C68.276 9.85001 66.9597 8.52405 66.9597 6.77553C66.9597 5.027 68.276 3.70104 70.0312 3.70104C71.7863 3.70104 73.1026 5.027 73.1026 6.77553C73.1026 8.52405 71.7863 9.85001 70.0312 9.85001Z" fill="#6F8FA6"/>
<path opacity="0.5" d="M9.29238 29.8943C4.16035 29.8943 4.96115e-08 25.7496 1.1081e-07 20.6368C1.72009e-07 15.5241 4.16034 11.3794 9.29238 11.3794L10.9019 11.3794L10.9019 29.8943L9.29238 29.8943Z" fill="#6F8FA6"/>
<path fill-rule="evenodd" clip-rule="evenodd" d="M19.9596 0.846924C14.8276 0.846924 10.6672 4.99163 10.6672 10.1044V29.8473H29.252V18.6347C28.4387 19.7794 27.4282 20.8891 26.2923 21.9341C23.2717 24.7114 19.7533 26.2362 17.5803 27.178C17.3347 27.2844 17.1063 27.3834 16.8977 27.476C16.7075 27.5591 16.4933 27.4666 16.4099 27.2771C16.2517 26.903 16.9712 26.5404 17.6387 26.2039C18.3125 25.8643 18.9335 25.5514 18.5459 25.2801C18.5298 25.2698 18.518 25.2603 18.5049 25.2532C18.3972 25.1945 18.2035 25.2935 14.8397 26.4082C14.6396 26.469 14.4366 26.3716 14.3644 26.1773C14.297 25.994 14.3898 25.7806 14.5689 25.7024L17.5116 24.4161C17.6459 24.3575 17.7087 24.1971 17.6498 24.0633C17.5463 23.8284 17.5173 23.8363 15.5554 24.3702C15.0038 24.5203 14.2994 24.712 13.3976 24.9515C13.1591 25.0159 12.9253 24.8788 12.8606 24.6412C12.7418 24.2006 12.9626 24.1377 15.178 23.5068C15.7127 23.3546 16.3636 23.1692 17.154 22.9375C17.2372 22.9144 17.3057 22.8578 17.3371 22.7777C17.5391 22.3185 17.0969 22.3605 15.0332 22.5566C14.5081 22.6065 13.8779 22.6663 13.1266 22.7304C12.8958 22.7516 12.6808 22.5664 12.6707 22.3315C12.6544 22.1127 12.8179 21.9083 13.0488 21.8871C12.9222 21.9026 17.5421 21.4253 17.8911 21.3392C18.0576 21.293 18.1812 21.1193 18.1573 20.9437C18.1222 20.6708 17.6981 20.5223 17.2537 20.3666C16.6527 20.1562 16.0146 19.9327 16.2505 19.3711C16.4797 18.8154 17.3034 19.091 18.3618 19.445C19.836 19.9382 21.7656 20.5837 23.1783 19.3472C28.2995 14.857 29.2015 11.2797 29.2238 9.37795C28.8519 4.60474 24.8463 0.846924 19.9596 0.846924Z" fill="#6F8FA6"/>
</svg>
