<svg width="24" height="24" viewBox="0 0 24 24" fill="none" xmlns="http://www.w3.org/2000/svg">
<g clip-path="url(#clip0)">
<rect x="0.5" width="24" height="24" rx="4" fill="#6F8FA6" fill-opacity="0.2"/>
<path opacity="0.3" fill-rule="evenodd" clip-rule="evenodd" d="M9.75 5.375V5.71875C9.75 6.28829 10.2117 6.75 10.7812 6.75H14.2188C14.7883 6.75 15.25 6.28829 15.25 5.71875V5.375H16.625C17.3844 5.375 18 5.99061 18 6.75V17.75C18 18.5094 17.3844 19.125 16.625 19.125H8.375C7.61561 19.125 7 18.5094 7 17.75V6.75C7 5.99061 7.61561 5.375 8.375 5.375H9.75Z" fill="#6F8FA6"/>
<path fill-rule="evenodd" clip-rule="evenodd" d="M11.8125 4.6875C11.8125 4.3078 12.1203 4 12.5 4C12.8797 4 13.1875 4.3078 13.1875 4.6875H14.2188C14.4086 4.6875 14.5625 4.8414 14.5625 5.03125V5.71875C14.5625 5.9086 14.4086 6.0625 14.2188 6.0625H10.7812C10.5914 6.0625 10.4375 5.9086 10.4375 5.71875V5.03125C10.4375 4.8414 10.5914 4.6875 10.7812 4.6875H11.8125Z" fill="#6F8FA6"/>
<path opacity="0.3" d="M15.25 9.5H11.8125C11.4328 9.5 11.125 9.8078 11.125 10.1875C11.125 10.5672 11.4328 10.875 11.8125 10.875H15.25C15.6297 10.875 15.9375 10.5672 15.9375 10.1875C15.9375 9.8078 15.6297 9.5 15.25 9.5Z" fill="#6F8FA6"/>
<path opacity="0.3" d="M10.4375 10.1875C10.4375 9.8078 10.1297 9.5 9.75 9.5C9.3703 9.5 9.0625 9.8078 9.0625 10.1875C9.0625 10.5672 9.3703 10.875 9.75 10.875C10.1297 10.875 10.4375 10.5672 10.4375 10.1875Z" fill="#6F8FA6"/>
<path opacity="0.3" d="M10.4375 12.9375C10.4375 12.5578 10.1297 12.25 9.75 12.25C9.3703 12.25 9.0625 12.5578 9.0625 12.9375C9.0625 13.3172 9.3703 13.625 9.75 13.625C10.1297 13.625 10.4375 13.3172 10.4375 12.9375Z" fill="#6F8FA6"/>
<path opacity="0.3" d="M15.25 12.25H11.8125C11.4328 12.25 11.125 12.5578 11.125 12.9375C11.125 13.3172 11.4328 13.625 11.8125 13.625H15.25C15.6297 13.625 15.9375 13.3172 15.9375 12.9375C15.9375 12.5578 15.6297 12.25 15.25 12.25Z" fill="#6F8FA6"/>
<path opacity="0.3" d="M10.4375 15.6875C10.4375 15.3078 10.1297 15 9.75 15C9.3703 15 9.0625 15.3078 9.0625 15.6875C9.0625 16.0672 9.3703 16.375 9.75 16.375C10.1297 16.375 10.4375 16.0672 10.4375 15.6875Z" fill="#6F8FA6"/>
<path opacity="0.3" d="M15.25 15H11.8125C11.4328 15 11.125 15.3078 11.125 15.6875C11.125 16.0672 11.4328 16.375 11.8125 16.375H15.25C15.6297 16.375 15.9375 16.0672 15.9375 15.6875C15.9375 15.3078 15.6297 15 15.25 15Z" fill="#6F8FA6"/>
</g>
<defs>
<clipPath id="clip0">
<rect width="24" height="24" fill="white"/>
</clipPath>
</defs>
</svg>
