<svg width="20" height="21" viewBox="0 0 20 21" fill="none" xmlns="http://www.w3.org/2000/svg">
<path opacity="0.3" fill-rule="evenodd" clip-rule="evenodd" d="M10 18.8333C5.85786 18.8333 2.5 15.4754 2.5 11.3333C2.5 7.19112 5.85786 3.83325 10 3.83325C14.1421 3.83325 17.5 7.19112 17.5 11.3333C17.5 15.4754 14.1421 18.8333 10 18.8333Z" fill="#6F8FA6"/>
<path fill-rule="evenodd" clip-rule="evenodd" d="M9.96917 6.75H10.0396C10.2536 6.75 10.4329 6.91221 10.4542 7.12521L10.8333 10.9167L13.5401 12.4634C13.6699 12.5376 13.75 12.6756 13.75 12.8251V13C13.75 13.1758 13.6075 13.3182 13.4317 13.3182C13.4035 13.3182 13.3753 13.3145 13.348 13.307L9.49888 12.2573C9.30606 12.2047 9.17774 12.0226 9.19307 11.8233L9.55374 7.13471C9.57043 6.91763 9.75145 6.75 9.96917 6.75Z" fill="#6F8FA6"/>
</svg>
