<svg width="24" height="24" viewBox="0 0 24 24" fill="none" xmlns="http://www.w3.org/2000/svg">
<rect width="24" height="24" rx="4" fill="#6F8FA6" fill-opacity="0.2"/>
<path opacity="0.3" d="M15.975 5.5C14.6069 5.5 13.007 7.05094 12.15 8.05C11.293 7.05094 9.69308 5.5 8.325 5.5C5.90335 5.5 4.5 7.38885 4.5 9.79285C4.5 12.4559 7.05 15.275 12.15 18.25C17.25 15.275 19.8 12.5125 19.8 9.9625C19.8 7.55851 18.3967 5.5 15.975 5.5Z" fill="#6F8FA6"/>
<path d="M12.15 18.25C7.05 15.275 4.5 12.4559 4.5 9.79285C4.5 7.38885 5.90335 5.5 8.325 5.5C9.69308 5.5 11.293 7.05094 12.15 8.05V18.25Z" fill="#6F8FA6"/>
</svg>
